<svg width="40" height="40" viewBox="0 0 40 40" fill="none" xmlns="http://www.w3.org/2000/svg">
<rect width="40" height="40" rx="16" fill="#8C2BEE" fill-opacity="0.1"/>
<path d="M14.1569 29.7227V25.5421C13.2333 24.6995 12.5163 23.7151 12.0059 22.589C11.4954 21.4628 11.2402 20.2759 11.2402 19.0282C11.2402 16.5977 12.0909 14.5317 13.7923 12.8303C15.4937 11.1289 17.5597 10.2782 19.9902 10.2782C22.0157 10.2782 23.8103 10.8737 25.3739 12.0647C26.9376 13.2556 27.9544 14.8071 28.4243 16.7192L29.6882 21.7018C29.7692 22.0097 29.7125 22.2892 29.518 22.5404C29.3236 22.7915 29.0643 22.9171 28.7402 22.9171H26.7958V25.8338C26.7958 26.3685 26.6054 26.8262 26.2246 27.207C25.8438 27.5878 25.3861 27.7782 24.8513 27.7782H22.9069V29.7227H20.9625V25.8338H24.8513V20.9727H27.4763L26.5527 17.2053C26.18 15.7308 25.3861 14.5317 24.1708 13.6081C22.9555 12.6845 21.562 12.2227 19.9902 12.2227C18.1106 12.2227 16.5064 12.8789 15.1777 14.1914C13.849 15.5039 13.1847 17.1 13.1847 18.9796C13.1847 19.9518 13.3832 20.8754 13.7802 21.7504C14.1772 22.6254 14.7402 23.4032 15.4694 24.0838L16.1013 24.6671V29.7227H14.1569ZM19.018 22.9171H20.9625L21.1083 21.7018C21.2379 21.6532 21.3554 21.5965 21.4607 21.5317C21.566 21.4669 21.6592 21.394 21.7402 21.3129L22.8583 21.799L23.8305 20.1463L22.8583 19.4171C22.8907 19.2875 22.9069 19.1578 22.9069 19.0282C22.9069 18.8986 22.8907 18.769 22.8583 18.6393L23.8305 17.9102L22.8583 16.2574L21.7402 16.7435C21.6592 16.6625 21.566 16.5896 21.4607 16.5247C21.3554 16.4599 21.2379 16.4032 21.1083 16.3546L20.9625 15.1393H19.018L18.8722 16.3546C18.7425 16.4032 18.6251 16.4599 18.5197 16.5247C18.4144 16.5896 18.3213 16.6625 18.2402 16.7435L17.1222 16.2574L16.15 17.9102L17.1222 18.6393C17.0898 18.769 17.0736 18.8986 17.0736 19.0282C17.0736 19.1578 17.0898 19.2875 17.1222 19.4171L16.15 20.1463L17.1222 21.799L18.2402 21.3129C18.3213 21.394 18.4144 21.4669 18.5197 21.5317C18.6251 21.5965 18.7425 21.6532 18.8722 21.7018L19.018 22.9171ZM19.9902 20.4865C19.5851 20.4865 19.2408 20.3448 18.9572 20.0612C18.6737 19.7776 18.5319 19.4333 18.5319 19.0282C18.5319 18.6231 18.6737 18.2788 18.9572 17.9952C19.2408 17.7117 19.5851 17.5699 19.9902 17.5699C20.3953 17.5699 20.7397 17.7117 21.0232 17.9952C21.3068 18.2788 21.4486 18.6231 21.4486 19.0282C21.4486 19.4333 21.3068 19.7776 21.0232 20.0612C20.7397 20.3448 20.3953 20.4865 19.9902 20.4865Z" fill="#8C2BEE"/>
</svg>
